<?xml version="1.0" standalone="no"?>
<svg xmlns:xlink="http://www.w3.org/1999/xlink" id="wave" style="transform:rotate(180deg); transition: 0.3s" viewBox="0 0 1440 100" version="1.1" xmlns="http://www.w3.org/2000/svg"><defs><linearGradient id="sw-gradient-0" x1="0" x2="0" y1="1" y2="0"><stop stop-color="rgba(255, 255, 255, 1)" offset="0%"/><stop stop-color="rgba(255, 255, 255, 1)" offset="100%"/></linearGradient></defs><path style="transform:translate(0, 0px); opacity:1" fill="url(#sw-gradient-0)" d="M0,10L40,18.3C80,27,160,43,240,48.3C320,53,400,47,480,38.3C560,30,640,20,720,26.7C800,33,880,57,960,63.3C1040,70,1120,60,1200,51.7C1280,43,1360,37,1440,28.3C1520,20,1600,10,1680,8.3C1760,7,1840,13,1920,20C2000,27,2080,33,2160,33.3C2240,33,2320,27,2400,23.3C2480,20,2560,20,2640,31.7C2720,43,2800,67,2880,71.7C2960,77,3040,63,3120,60C3200,57,3280,63,3360,68.3C3440,73,3520,77,3600,71.7C3680,67,3760,53,3840,40C3920,27,4000,13,4080,18.3C4160,23,4240,47,4320,48.3C4400,50,4480,30,4560,25C4640,20,4720,30,4800,36.7C4880,43,4960,47,5040,46.7C5120,47,5200,43,5280,48.3C5360,53,5440,67,5520,71.7C5600,77,5680,73,5720,71.7L5760,70L5760,100L5720,100C5680,100,5600,100,5520,100C5440,100,5360,100,5280,100C5200,100,5120,100,5040,100C4960,100,4880,100,4800,100C4720,100,4640,100,4560,100C4480,100,4400,100,4320,100C4240,100,4160,100,4080,100C4000,100,3920,100,3840,100C3760,100,3680,100,3600,100C3520,100,3440,100,3360,100C3280,100,3200,100,3120,100C3040,100,2960,100,2880,100C2800,100,2720,100,2640,100C2560,100,2480,100,2400,100C2320,100,2240,100,2160,100C2080,100,2000,100,1920,100C1840,100,1760,100,1680,100C1600,100,1520,100,1440,100C1360,100,1280,100,1200,100C1120,100,1040,100,960,100C880,100,800,100,720,100C640,100,560,100,480,100C400,100,320,100,240,100C160,100,80,100,40,100L0,100Z"/></svg>